<mxfile host="Electron" agent="Mozilla/5.0 (X11; Linux x86_64) AppleWebKit/537.36 (KHTML, like Gecko) draw.io/24.7.8 Chrome/128.0.6613.36 Electron/32.0.1 Safari/537.36" version="24.7.8">
  <diagram name="Page-1" id="XLQEXnhqGPLwtMLlyDDn">
    <mxGraphModel dx="2497" dy="1586" grid="1" gridSize="10" guides="1" tooltips="1" connect="1" arrows="1" fold="1" page="1" pageScale="1" pageWidth="827" pageHeight="583" math="0" shadow="0">
      <root>
        <mxCell id="0" />
        <mxCell id="1" parent="0" />
        <mxCell id="XXDvaCYtdm6QkWAfyQ7A-2" value="DefaultDataset" style="swimlane;fontStyle=0;align=center;verticalAlign=top;childLayout=stackLayout;horizontal=1;startSize=26;horizontalStack=0;resizeParent=1;resizeLast=0;collapsible=1;marginBottom=0;rounded=0;shadow=0;strokeWidth=1;" vertex="1" parent="1">
          <mxGeometry x="290" y="-274" width="359" height="380" as="geometry">
            <mxRectangle x="230" y="140" width="160" height="26" as="alternateBounds" />
          </mxGeometry>
        </mxCell>
        <mxCell id="XXDvaCYtdm6QkWAfyQ7A-3" value="prompt_pattern = &quot;%s Was ist die Definition von %s? &quot;" style="text;align=left;verticalAlign=top;spacingLeft=4;spacingRight=4;overflow=hidden;rotatable=0;points=[[0,0.5],[1,0.5]];portConstraint=eastwest;" vertex="1" parent="XXDvaCYtdm6QkWAfyQ7A-2">
          <mxGeometry y="26" width="359" height="26" as="geometry" />
        </mxCell>
        <mxCell id="XXDvaCYtdm6QkWAfyQ7A-35" value="tokenizer" style="text;align=left;verticalAlign=top;spacingLeft=4;spacingRight=4;overflow=hidden;rotatable=0;points=[[0,0.5],[1,0.5]];portConstraint=eastwest;" vertex="1" parent="XXDvaCYtdm6QkWAfyQ7A-2">
          <mxGeometry y="52" width="359" height="26" as="geometry" />
        </mxCell>
        <mxCell id="XXDvaCYtdm6QkWAfyQ7A-36" value="extra_special_tokens =  []" style="text;align=left;verticalAlign=top;spacingLeft=4;spacingRight=4;overflow=hidden;rotatable=0;points=[[0,0.5],[1,0.5]];portConstraint=eastwest;" vertex="1" parent="XXDvaCYtdm6QkWAfyQ7A-2">
          <mxGeometry y="78" width="359" height="26" as="geometry" />
        </mxCell>
        <mxCell id="XXDvaCYtdm6QkWAfyQ7A-37" value="extra_tokens =  []" style="text;align=left;verticalAlign=top;spacingLeft=4;spacingRight=4;overflow=hidden;rotatable=0;points=[[0,0.5],[1,0.5]];portConstraint=eastwest;" vertex="1" parent="XXDvaCYtdm6QkWAfyQ7A-2">
          <mxGeometry y="104" width="359" height="26" as="geometry" />
        </mxCell>
        <mxCell id="XXDvaCYtdm6QkWAfyQ7A-4" value="" style="line;html=1;strokeWidth=1;align=left;verticalAlign=middle;spacingTop=-1;spacingLeft=3;spacingRight=3;rotatable=0;labelPosition=right;points=[];portConstraint=eastwest;" vertex="1" parent="XXDvaCYtdm6QkWAfyQ7A-2">
          <mxGeometry y="130" width="359" height="8" as="geometry" />
        </mxCell>
        <mxCell id="XXDvaCYtdm6QkWAfyQ7A-39" value="_subset" style="text;align=left;verticalAlign=top;spacingLeft=4;spacingRight=4;overflow=hidden;rotatable=0;points=[[0,0.5],[1,0.5]];portConstraint=eastwest;" vertex="1" parent="XXDvaCYtdm6QkWAfyQ7A-2">
          <mxGeometry y="138" width="359" height="26" as="geometry" />
        </mxCell>
        <mxCell id="XXDvaCYtdm6QkWAfyQ7A-41" value="_sanitize_spaces" style="text;align=left;verticalAlign=top;spacingLeft=4;spacingRight=4;overflow=hidden;rotatable=0;points=[[0,0.5],[1,0.5]];portConstraint=eastwest;" vertex="1" parent="XXDvaCYtdm6QkWAfyQ7A-2">
          <mxGeometry y="164" width="359" height="26" as="geometry" />
        </mxCell>
        <mxCell id="XXDvaCYtdm6QkWAfyQ7A-42" value="_sanitize_context" style="text;align=left;verticalAlign=top;spacingLeft=4;spacingRight=4;overflow=hidden;rotatable=0;points=[[0,0.5],[1,0.5]];portConstraint=eastwest;" vertex="1" parent="XXDvaCYtdm6QkWAfyQ7A-2">
          <mxGeometry y="190" width="359" height="26" as="geometry" />
        </mxCell>
        <mxCell id="XXDvaCYtdm6QkWAfyQ7A-43" value="_sanitize_gt" style="text;align=left;verticalAlign=top;spacingLeft=4;spacingRight=4;overflow=hidden;rotatable=0;points=[[0,0.5],[1,0.5]];portConstraint=eastwest;" vertex="1" parent="XXDvaCYtdm6QkWAfyQ7A-2">
          <mxGeometry y="216" width="359" height="26" as="geometry" />
        </mxCell>
        <mxCell id="XXDvaCYtdm6QkWAfyQ7A-45" value="_sanitize_word" style="text;align=left;verticalAlign=top;spacingLeft=4;spacingRight=4;overflow=hidden;rotatable=0;points=[[0,0.5],[1,0.5]];portConstraint=eastwest;" vertex="1" parent="XXDvaCYtdm6QkWAfyQ7A-2">
          <mxGeometry y="242" width="359" height="26" as="geometry" />
        </mxCell>
        <mxCell id="XXDvaCYtdm6QkWAfyQ7A-44" value="_cleanup" style="text;align=left;verticalAlign=top;spacingLeft=4;spacingRight=4;overflow=hidden;rotatable=0;points=[[0,0.5],[1,0.5]];portConstraint=eastwest;" vertex="1" parent="XXDvaCYtdm6QkWAfyQ7A-2">
          <mxGeometry y="268" width="359" height="26" as="geometry" />
        </mxCell>
        <mxCell id="XXDvaCYtdm6QkWAfyQ7A-40" value="_preprocessing" style="text;align=left;verticalAlign=top;spacingLeft=4;spacingRight=4;overflow=hidden;rotatable=0;points=[[0,0.5],[1,0.5]];portConstraint=eastwest;" vertex="1" parent="XXDvaCYtdm6QkWAfyQ7A-2">
          <mxGeometry y="294" width="359" height="26" as="geometry" />
        </mxCell>
        <mxCell id="XXDvaCYtdm6QkWAfyQ7A-47" value="_no_tokenizer_preprocessing" style="text;align=left;verticalAlign=top;spacingLeft=4;spacingRight=4;overflow=hidden;rotatable=0;points=[[0,0.5],[1,0.5]];portConstraint=eastwest;" vertex="1" parent="XXDvaCYtdm6QkWAfyQ7A-2">
          <mxGeometry y="320" width="359" height="26" as="geometry" />
        </mxCell>
        <mxCell id="XXDvaCYtdm6QkWAfyQ7A-48" value="_prepare_data" style="text;align=left;verticalAlign=top;spacingLeft=4;spacingRight=4;overflow=hidden;rotatable=0;points=[[0,0.5],[1,0.5]];portConstraint=eastwest;" vertex="1" parent="XXDvaCYtdm6QkWAfyQ7A-2">
          <mxGeometry y="346" width="359" height="26" as="geometry" />
        </mxCell>
        <mxCell id="XXDvaCYtdm6QkWAfyQ7A-5" value="DefaultTrainValSet" style="swimlane;fontStyle=0;align=center;verticalAlign=top;childLayout=stackLayout;horizontal=1;startSize=26;horizontalStack=0;resizeParent=1;resizeLast=0;collapsible=1;marginBottom=0;rounded=0;shadow=0;strokeWidth=1;" vertex="1" parent="1">
          <mxGeometry x="-110" y="-190" width="220" height="142" as="geometry">
            <mxRectangle x="130" y="380" width="160" height="26" as="alternateBounds" />
          </mxGeometry>
        </mxCell>
        <mxCell id="XXDvaCYtdm6QkWAfyQ7A-49" value="train_path = &quot;dataset/v5/train.parquet&quot;&#xa;" style="text;align=left;verticalAlign=top;spacingLeft=4;spacingRight=4;overflow=hidden;rotatable=0;points=[[0,0.5],[1,0.5]];portConstraint=eastwest;" vertex="1" parent="XXDvaCYtdm6QkWAfyQ7A-5">
          <mxGeometry y="26" width="220" height="26" as="geometry" />
        </mxCell>
        <mxCell id="XXDvaCYtdm6QkWAfyQ7A-50" value="val_path = &quot;dataset/v5/val.parquet&quot;" style="text;align=left;verticalAlign=top;spacingLeft=4;spacingRight=4;overflow=hidden;rotatable=0;points=[[0,0.5],[1,0.5]];portConstraint=eastwest;" vertex="1" parent="XXDvaCYtdm6QkWAfyQ7A-5">
          <mxGeometry y="52" width="220" height="26" as="geometry" />
        </mxCell>
        <mxCell id="XXDvaCYtdm6QkWAfyQ7A-9" value="" style="line;html=1;strokeWidth=1;align=left;verticalAlign=middle;spacingTop=-1;spacingLeft=3;spacingRight=3;rotatable=0;labelPosition=right;points=[];portConstraint=eastwest;" vertex="1" parent="XXDvaCYtdm6QkWAfyQ7A-5">
          <mxGeometry y="78" width="220" height="8" as="geometry" />
        </mxCell>
        <mxCell id="XXDvaCYtdm6QkWAfyQ7A-10" value="_data_loading" style="text;align=left;verticalAlign=top;spacingLeft=4;spacingRight=4;overflow=hidden;rotatable=0;points=[[0,0.5],[1,0.5]];portConstraint=eastwest;" vertex="1" parent="XXDvaCYtdm6QkWAfyQ7A-5">
          <mxGeometry y="86" width="220" height="28" as="geometry" />
        </mxCell>
        <mxCell id="XXDvaCYtdm6QkWAfyQ7A-52" value="create_dataset" style="text;align=left;verticalAlign=top;spacingLeft=4;spacingRight=4;overflow=hidden;rotatable=0;points=[[0,0.5],[1,0.5]];portConstraint=eastwest;" vertex="1" parent="XXDvaCYtdm6QkWAfyQ7A-5">
          <mxGeometry y="114" width="220" height="28" as="geometry" />
        </mxCell>
        <mxCell id="XXDvaCYtdm6QkWAfyQ7A-11" value="" style="endArrow=block;endSize=10;endFill=0;shadow=0;strokeWidth=1;rounded=0;curved=0;edgeStyle=elbowEdgeStyle;elbow=vertical;" edge="1" parent="1" source="XXDvaCYtdm6QkWAfyQ7A-5" target="XXDvaCYtdm6QkWAfyQ7A-2">
          <mxGeometry width="160" relative="1" as="geometry">
            <mxPoint x="341" y="205" as="sourcePoint" />
            <mxPoint x="341" y="205" as="targetPoint" />
          </mxGeometry>
        </mxCell>
        <mxCell id="XXDvaCYtdm6QkWAfyQ7A-12" value="DefaultTestSet" style="swimlane;fontStyle=0;align=center;verticalAlign=top;childLayout=stackLayout;horizontal=1;startSize=26;horizontalStack=0;resizeParent=1;resizeLast=0;collapsible=1;marginBottom=0;rounded=0;shadow=0;strokeWidth=1;" vertex="1" parent="1">
          <mxGeometry x="710" y="-177" width="210" height="116" as="geometry">
            <mxRectangle x="340" y="380" width="170" height="26" as="alternateBounds" />
          </mxGeometry>
        </mxCell>
        <mxCell id="XXDvaCYtdm6QkWAfyQ7A-13" value="test_path = &quot;dataset/v5/test.parquet&quot;" style="text;align=left;verticalAlign=top;spacingLeft=4;spacingRight=4;overflow=hidden;rotatable=0;points=[[0,0.5],[1,0.5]];portConstraint=eastwest;" vertex="1" parent="XXDvaCYtdm6QkWAfyQ7A-12">
          <mxGeometry y="26" width="210" height="26" as="geometry" />
        </mxCell>
        <mxCell id="XXDvaCYtdm6QkWAfyQ7A-14" value="" style="line;html=1;strokeWidth=1;align=left;verticalAlign=middle;spacingTop=-1;spacingLeft=3;spacingRight=3;rotatable=0;labelPosition=right;points=[];portConstraint=eastwest;" vertex="1" parent="XXDvaCYtdm6QkWAfyQ7A-12">
          <mxGeometry y="52" width="210" height="8" as="geometry" />
        </mxCell>
        <mxCell id="XXDvaCYtdm6QkWAfyQ7A-51" value="_data_loading" style="text;align=left;verticalAlign=top;spacingLeft=4;spacingRight=4;overflow=hidden;rotatable=0;points=[[0,0.5],[1,0.5]];portConstraint=eastwest;" vertex="1" parent="XXDvaCYtdm6QkWAfyQ7A-12">
          <mxGeometry y="60" width="210" height="28" as="geometry" />
        </mxCell>
        <mxCell id="XXDvaCYtdm6QkWAfyQ7A-53" value="create_dataset" style="text;align=left;verticalAlign=top;spacingLeft=4;spacingRight=4;overflow=hidden;rotatable=0;points=[[0,0.5],[1,0.5]];portConstraint=eastwest;" vertex="1" parent="XXDvaCYtdm6QkWAfyQ7A-12">
          <mxGeometry y="88" width="210" height="28" as="geometry" />
        </mxCell>
        <mxCell id="XXDvaCYtdm6QkWAfyQ7A-16" value="" style="endArrow=block;endSize=10;endFill=0;shadow=0;strokeWidth=1;rounded=0;curved=0;edgeStyle=elbowEdgeStyle;elbow=vertical;" edge="1" parent="1" source="XXDvaCYtdm6QkWAfyQ7A-12" target="XXDvaCYtdm6QkWAfyQ7A-2">
          <mxGeometry width="160" relative="1" as="geometry">
            <mxPoint x="351" y="375" as="sourcePoint" />
            <mxPoint x="451" y="273" as="targetPoint" />
          </mxGeometry>
        </mxCell>
        <mxCell id="XXDvaCYtdm6QkWAfyQ7A-17" style="edgeStyle=elbowEdgeStyle;rounded=0;orthogonalLoop=1;jettySize=auto;html=1;endArrow=block;endFill=0;elbow=vertical;startSize=6;endSize=10;" edge="1" parent="1" source="XXDvaCYtdm6QkWAfyQ7A-18" target="XXDvaCYtdm6QkWAfyQ7A-12">
          <mxGeometry relative="1" as="geometry" />
        </mxCell>
        <mxCell id="XXDvaCYtdm6QkWAfyQ7A-18" value="DefinitionTestSet" style="swimlane;fontStyle=0;align=center;verticalAlign=top;childLayout=stackLayout;horizontal=1;startSize=26;horizontalStack=0;resizeParent=1;resizeLast=0;collapsible=1;marginBottom=0;rounded=0;shadow=0;strokeWidth=1;" vertex="1" parent="1">
          <mxGeometry x="705" y="-20" width="220" height="60" as="geometry">
            <mxRectangle x="591" y="352" width="160" height="26" as="alternateBounds" />
          </mxGeometry>
        </mxCell>
        <mxCell id="XXDvaCYtdm6QkWAfyQ7A-58" value="test_path = &quot;distillaton/v1/test.parquet&quot;" style="text;align=left;verticalAlign=top;spacingLeft=4;spacingRight=4;overflow=hidden;rotatable=0;points=[[0,0.5],[1,0.5]];portConstraint=eastwest;" vertex="1" parent="XXDvaCYtdm6QkWAfyQ7A-18">
          <mxGeometry y="26" width="220" height="26" as="geometry" />
        </mxCell>
        <mxCell id="XXDvaCYtdm6QkWAfyQ7A-19" value="" style="line;html=1;strokeWidth=1;align=left;verticalAlign=middle;spacingTop=-1;spacingLeft=3;spacingRight=3;rotatable=0;labelPosition=right;points=[];portConstraint=eastwest;" vertex="1" parent="XXDvaCYtdm6QkWAfyQ7A-18">
          <mxGeometry y="52" width="220" height="8" as="geometry" />
        </mxCell>
        <mxCell id="XXDvaCYtdm6QkWAfyQ7A-20" style="edgeStyle=orthogonalEdgeStyle;rounded=0;orthogonalLoop=1;jettySize=auto;html=1;endArrow=block;endFill=0;endSize=10;" edge="1" parent="1" source="XXDvaCYtdm6QkWAfyQ7A-21" target="XXDvaCYtdm6QkWAfyQ7A-5">
          <mxGeometry relative="1" as="geometry" />
        </mxCell>
        <mxCell id="XXDvaCYtdm6QkWAfyQ7A-21" value="DefinitionDataset" style="swimlane;fontStyle=0;align=center;verticalAlign=top;childLayout=stackLayout;horizontal=1;startSize=26;horizontalStack=0;resizeParent=1;resizeLast=0;collapsible=1;marginBottom=0;rounded=0;shadow=0;strokeWidth=1;" vertex="1" parent="1">
          <mxGeometry x="-240" y="20" width="220" height="86" as="geometry">
            <mxRectangle x="80" y="410" width="160" height="26" as="alternateBounds" />
          </mxGeometry>
        </mxCell>
        <mxCell id="XXDvaCYtdm6QkWAfyQ7A-54" value="train_path = &quot;distillaton/v1/train.parquet&quot;&#xa;" style="text;align=left;verticalAlign=top;spacingLeft=4;spacingRight=4;overflow=hidden;rotatable=0;points=[[0,0.5],[1,0.5]];portConstraint=eastwest;" vertex="1" parent="XXDvaCYtdm6QkWAfyQ7A-21">
          <mxGeometry y="26" width="220" height="26" as="geometry" />
        </mxCell>
        <mxCell id="XXDvaCYtdm6QkWAfyQ7A-56" value="val_path = &quot;distillaton/v1/val.parquet&quot;&#xa;" style="text;align=left;verticalAlign=top;spacingLeft=4;spacingRight=4;overflow=hidden;rotatable=0;points=[[0,0.5],[1,0.5]];portConstraint=eastwest;" vertex="1" parent="XXDvaCYtdm6QkWAfyQ7A-21">
          <mxGeometry y="52" width="220" height="26" as="geometry" />
        </mxCell>
        <mxCell id="XXDvaCYtdm6QkWAfyQ7A-23" value="" style="line;html=1;strokeWidth=1;align=left;verticalAlign=middle;spacingTop=-1;spacingLeft=3;spacingRight=3;rotatable=0;labelPosition=right;points=[];portConstraint=eastwest;" vertex="1" parent="XXDvaCYtdm6QkWAfyQ7A-21">
          <mxGeometry y="78" width="220" height="8" as="geometry" />
        </mxCell>
        <mxCell id="XXDvaCYtdm6QkWAfyQ7A-24" style="edgeStyle=orthogonalEdgeStyle;rounded=0;orthogonalLoop=1;jettySize=auto;html=1;endArrow=block;endFill=0;endSize=10;" edge="1" parent="1" source="XXDvaCYtdm6QkWAfyQ7A-25" target="XXDvaCYtdm6QkWAfyQ7A-5">
          <mxGeometry relative="1" as="geometry" />
        </mxCell>
        <mxCell id="XXDvaCYtdm6QkWAfyQ7A-25" value="DefinitionDataset" style="swimlane;fontStyle=0;align=center;verticalAlign=top;childLayout=stackLayout;horizontal=1;startSize=26;horizontalStack=0;resizeParent=1;resizeLast=0;collapsible=1;marginBottom=0;rounded=0;shadow=0;strokeWidth=1;" vertex="1" parent="1">
          <mxGeometry x="20" y="20" width="220" height="164" as="geometry">
            <mxRectangle x="290" y="410" width="160" height="26" as="alternateBounds" />
          </mxGeometry>
        </mxCell>
        <mxCell id="XXDvaCYtdm6QkWAfyQ7A-55" value="train_path = &quot;dataset/v6/train.parquet&quot;&#xa;" style="text;align=left;verticalAlign=top;spacingLeft=4;spacingRight=4;overflow=hidden;rotatable=0;points=[[0,0.5],[1,0.5]];portConstraint=eastwest;" vertex="1" parent="XXDvaCYtdm6QkWAfyQ7A-25">
          <mxGeometry y="26" width="220" height="26" as="geometry" />
        </mxCell>
        <mxCell id="XXDvaCYtdm6QkWAfyQ7A-57" value="val_path = &quot;dataset/v6/val.parquet&quot;&#xa;" style="text;align=left;verticalAlign=top;spacingLeft=4;spacingRight=4;overflow=hidden;rotatable=0;points=[[0,0.5],[1,0.5]];portConstraint=eastwest;" vertex="1" parent="XXDvaCYtdm6QkWAfyQ7A-25">
          <mxGeometry y="52" width="220" height="26" as="geometry" />
        </mxCell>
        <mxCell id="XXDvaCYtdm6QkWAfyQ7A-27" value="" style="line;html=1;strokeWidth=1;align=left;verticalAlign=middle;spacingTop=-1;spacingLeft=3;spacingRight=3;rotatable=0;labelPosition=right;points=[];portConstraint=eastwest;" vertex="1" parent="XXDvaCYtdm6QkWAfyQ7A-25">
          <mxGeometry y="78" width="220" height="8" as="geometry" />
        </mxCell>
        <mxCell id="XXDvaCYtdm6QkWAfyQ7A-59" value="_sanitize_context" style="text;align=left;verticalAlign=top;spacingLeft=4;spacingRight=4;overflow=hidden;rotatable=0;points=[[0,0.5],[1,0.5]];portConstraint=eastwest;" vertex="1" parent="XXDvaCYtdm6QkWAfyQ7A-25">
          <mxGeometry y="86" width="220" height="26" as="geometry" />
        </mxCell>
        <mxCell id="XXDvaCYtdm6QkWAfyQ7A-61" value="_sanitize_word" style="text;align=left;verticalAlign=top;spacingLeft=4;spacingRight=4;overflow=hidden;rotatable=0;points=[[0,0.5],[1,0.5]];portConstraint=eastwest;" vertex="1" parent="XXDvaCYtdm6QkWAfyQ7A-25">
          <mxGeometry y="112" width="220" height="26" as="geometry" />
        </mxCell>
        <mxCell id="XXDvaCYtdm6QkWAfyQ7A-60" value="_sanitize_gt" style="text;align=left;verticalAlign=top;spacingLeft=4;spacingRight=4;overflow=hidden;rotatable=0;points=[[0,0.5],[1,0.5]];portConstraint=eastwest;" vertex="1" parent="XXDvaCYtdm6QkWAfyQ7A-25">
          <mxGeometry y="138" width="220" height="26" as="geometry" />
        </mxCell>
      </root>
    </mxGraphModel>
  </diagram>
</mxfile>
